<?xml version="1.0" encoding="UTF-8"?>
<svg width="170px" height="53px" viewBox="0 0 170 53" version="1.1" xmlns="http://www.w3.org/2000/svg" xmlns:xlink="http://www.w3.org/1999/xlink">
    <!-- Generator: sketchtool 55.2 (78181) - https://sketchapp.com -->
    <title>76618612-898A-41C7-9010-45A301973E53</title>
    <desc>Created with sketchtool.</desc>
    <g id="Symbols" stroke="none" stroke-width="1" fill="none" fill-rule="evenodd">
        <g id="handsup_logo" fill-rule="nonzero">
            <g>
                <g id="Group-5" transform="translate(0.645925, 0.217196)">
                    <path d="M38.295027,39.8192947 C38.295027,39.8192947 38.295027,39.8192947 38.295027,39.8192947 C38.295027,39.7468959 38.295027,39.7468959 38.295027,39.7468959 L38.295027,39.7468959 C38.2226461,38.8057126 37.4264556,38.1541242 36.4855032,38.2265229 L11.007408,41.7016613 L9.12550321,41.9188575 C8.32931274,41.9912562 7.75026512,42.6428447 7.75026512,43.4392305 L7.75026512,43.4392305 C7.75026512,43.4392305 7.75026512,43.4392305 7.75026512,43.5116293 C7.75026512,43.5116293 7.75026512,43.5116293 7.75026512,43.5116293 L7.75026512,43.5116293 C7.75026512,43.5116293 7.75026512,43.5116293 7.75026512,43.5116293 C7.75026512,48.1451472 7.75026512,49.5207228 7.75026512,49.5207228 L7.75026512,49.5207228 L7.75026512,50.0999126 L7.75026512,50.0999126 C7.75026512,50.1723113 7.75026512,50.24471 7.75026512,50.3171087 C7.75026512,51.3306908 8.61883655,52.0546779 9.55978893,51.9098805 L36.9197889,48.1451472 C37.7159794,48.0003498 38.295027,47.3487613 38.295027,46.5523754 C38.295027,46.5523754 38.295027,46.4799767 38.295027,46.4799767 L38.295027,46.4799767 C38.295027,44.8148062 38.295027,42.4980472 38.295027,39.8192947 C38.295027,39.8192947 38.295027,39.8192947 38.295027,39.8192947 Z M11.007408,48.5071408 L11.007408,48.5071408 C11.007408,47.4935587 11.007408,46.3351792 11.007408,44.9596036 L35.1102651,41.7016613 C35.1102651,43.2220344 35.1102651,44.3804139 35.1102651,45.2491985 L11.007408,48.5071408 Z" id="Shape" fill="#16EFC5"></path>
                    <path d="M38.295027,19.9096473 C38.295027,17.7376858 36.9197889,15.9277179 35.0378842,15.2037307 C34.4588365,14.9865345 33.8797889,14.8417371 33.2283604,14.8417371 C32.5769318,14.8417371 31.9978842,14.9865345 31.4188365,15.2037307 C31.2016937,15.2761294 30.9845508,15.4209268 30.767408,15.4933256 C30.1883604,14.4797435 29.247408,13.6833576 28.1616937,13.2489653 C27.5826461,13.0317692 27.0035985,12.8869717 26.3521699,12.8869717 C25.7007413,12.8869717 25.1216937,13.0317692 24.5426461,13.2489653 C24.2531223,13.3937628 23.9635985,13.5385602 23.6740746,13.6833576 C23.095027,12.814573 22.2264556,12.1629846 21.2855032,11.800991 C20.7064556,11.5837948 20.127408,11.4389974 19.4759794,11.4389974 C18.8245508,11.4389974 18.2455032,11.5837948 17.6664556,11.800991 L17.6664556,5.06791023 C17.6664556,2.8959487 16.2912175,1.08598076 14.4093127,0.361993588 C13.8302651,0.144797435 13.2512175,0 12.5997889,0 C11.9483604,0 11.3693127,0.144797435 10.7902651,0.361993588 C8.90836036,1.08598076 7.53312226,2.8959487 7.53312226,5.06791023 L7.53312226,25.7739435 C7.53312226,25.7739435 7.53312226,26.8599242 7.53312226,28.5974934 L1.38074131,29.3938793 C0.584550834,29.5386768 -0.0668777374,30.1902652 0.00550321494,31.0590498 C0.0778841673,32.0002332 0.946455596,32.7242203 1.88740798,32.5794229 L7.53312226,31.783037 C7.53312226,32.8690178 7.53312226,33.6654037 7.53312226,34.8961819 L7.53312226,36.7785485 C7.53312226,37.3577383 7.82264607,37.7921306 8.18455083,38.0817254 C8.47407464,38.2989216 8.90836036,38.443719 9.34264607,38.3713203 L10.7902651,38.1541242 L21.647408,36.7061498 L21.647408,36.7061498 L21.9369318,36.6337511 C22.5883604,36.5613524 23.167408,36.2717575 23.7464556,35.9821626 C25.1940746,35.113378 26.135027,33.5206062 26.135027,31.7106383 C26.135027,29.9006704 25.1940746,28.3078986 23.7464556,27.439114 C22.9502651,27.0047217 22.0816937,26.7151268 21.1407413,26.7151268 C20.9959794,26.7151268 20.8512175,26.7151268 20.7064556,26.7151268 C20.5616937,26.7151268 20.4169318,26.7151268 20.2721699,26.7875255 L10.7902651,28.0907024 C10.7902651,26.6427281 10.7902651,25.7015447 10.7902651,25.7015447 L10.7902651,5.06791023 C10.7902651,4.1267269 11.5140746,3.25794229 12.455027,3.18554357 C13.4683604,3.11314486 14.3369318,3.98192947 14.3369318,4.99551151 L14.3369318,21.7196153 C14.3369318,22.5883999 15.0607413,23.3847858 16.0016937,23.3847858 C16.8702651,23.3847858 17.6664556,22.6607986 17.6664556,21.7196153 L17.6664556,16.4345089 C17.6664556,15.4209268 18.4626461,14.624541 19.4759794,14.624541 C20.4893127,14.624541 21.2855032,15.4209268 21.2855032,16.4345089 L21.2855032,21.7196153 C21.2855032,22.5883999 22.0093127,23.3847858 22.9502651,23.3847858 C23.8188365,23.3847858 24.615027,22.6607986 24.615027,21.7196153 L24.615027,17.954882 C24.615027,16.9412999 25.4112175,16.144914 26.4245508,16.144914 C27.4378842,16.144914 28.2340746,16.9412999 28.2340746,17.954882 L28.2340746,21.7196153 C28.2340746,22.5883999 28.9578842,23.3847858 29.8988365,23.3847858 C30.767408,23.3847858 31.5635985,22.6607986 31.5635985,21.7196153 L31.5635985,19.8372486 C31.5635985,18.8236666 32.3597889,18.0272807 33.3731223,18.0272807 C34.3864556,18.0272807 35.1826461,18.8236666 35.1826461,19.8372486 L35.1826461,33.1586126 C35.1826461,34.0273973 35.9064556,34.8237832 36.847408,34.8237832 C37.7159794,34.8237832 38.5121699,34.099796 38.5121699,33.1586126 L38.295027,19.9096473 Z M16.5083604,30.6970563 L20.9959794,30.1178665 L20.9959794,30.1178665 L21.2855032,30.1178665 L21.2855032,30.1178665 C21.3578842,30.1178665 21.3578842,30.1178665 21.4302651,30.1178665 C22.0093127,30.1178665 22.5159794,30.3350627 22.8778842,30.8418537 C23.6740746,32.1450306 22.8778842,33.4482075 21.7197889,33.6654037 L21.575027,33.6654037 L17.015027,34.2445934 L11.007408,35.0409793 L11.007408,34.5341883 C11.007408,33.3034101 11.007408,32.5070242 11.007408,31.4210434 L16.5083604,30.6970563 Z" id="Shape" fill="#00CCFF"></path>
                </g>
                <g id="Group" transform="translate(48.400000, 20.995628)" fill="#00CCFF">
                    <path d="M0.361904762,19.3304576 L0.361904762,3.76473331 C0.361904762,3.11314486 0.579047619,2.53395512 0.940952381,2.17196153 C1.30285714,1.80996794 1.80952381,1.59277179 2.46095238,1.59277179 C3.04,1.59277179 3.54666667,1.80996794 3.90857143,2.17196153 C4.27047619,2.53395512 4.48761905,3.04074614 4.48761905,3.76473331 L4.48761905,9.55663072 L13.1009524,9.55663072 L13.1009524,3.76473331 C13.1009524,3.11314486 13.3180952,2.53395512 13.68,2.17196153 C14.0419048,1.80996794 14.5485714,1.59277179 15.2,1.59277179 C15.7790476,1.59277179 16.2857143,1.80996794 16.647619,2.17196153 C17.0095238,2.53395512 17.2266667,3.04074614 17.2266667,3.76473331 L17.2266667,19.3304576 C17.2266667,19.9820461 17.0095238,20.5612358 16.647619,20.9232294 C16.2857143,21.285223 15.7790476,21.5024191 15.127619,21.5024191 C14.5485714,21.5024191 14.0419048,21.285223 13.68,20.9232294 C13.3180952,20.5612358 13.1009524,20.0544448 13.1009524,19.3304576 L13.1009524,13.321364 L4.48761905,13.321364 L4.48761905,19.3304576 C4.48761905,19.9820461 4.27047619,20.5612358 3.90857143,20.9232294 C3.54666667,21.285223 3.04,21.5024191 2.38857143,21.5024191 C1.80952381,21.5024191 1.30285714,21.285223 0.940952381,20.9232294 C0.579047619,20.4888371 0.361904762,19.9820461 0.361904762,19.3304576 Z" id="Path"></path>
                    <path d="M34.8152381,9.12223841 L34.8152381,18.8236666 C34.8152381,19.5476537 34.7428571,20.1992422 34.5257143,20.7060332 C34.3085714,21.2128242 33.8019048,21.4300204 32.9333333,21.4300204 C32.4266667,21.4300204 31.992381,21.285223 31.7028571,20.9956281 C31.4133333,20.7060332 31.1961905,20.2716409 31.0514286,19.7648499 C30.0380952,20.9956281 28.807619,21.5748178 27.287619,21.5748178 C25.4057143,21.5748178 23.8133333,20.8508307 22.5828571,19.475255 C21.352381,18.0272807 20.7009524,16.2173127 20.7009524,13.9729525 C20.7009524,11.800991 21.352381,9.99102303 22.5828571,8.54304867 C23.8133333,7.09507432 25.4057143,6.37108715 27.2152381,6.37108715 C28.0114286,6.37108715 28.6628571,6.51588458 29.3866667,6.80547945 C30.0380952,7.09507432 30.6171429,7.52946663 30.9790476,8.18105509 C31.0514286,7.67426406 31.2685714,7.31227048 31.6304762,7.0226756 C31.992381,6.73308073 32.4266667,6.5882833 32.8609524,6.5882833 C33.6571429,6.5882833 34.2361905,6.80547945 34.4533333,7.31227048 C34.7428571,7.74666278 34.8152381,8.32585252 34.8152381,9.12223841 Z M27.8666667,17.954882 C28.807619,17.954882 29.6038095,17.5204897 30.1104762,16.7241038 C30.6171429,15.9277179 30.9066667,14.9865345 30.9066667,13.9729525 C30.9066667,12.9593704 30.6171429,12.0181871 30.1104762,11.2218012 C29.6038095,10.4254153 28.807619,9.99102303 27.8666667,9.99102303 C26.8533333,9.99102303 26.0571429,10.4254153 25.5504762,11.2218012 C25.0438095,12.0181871 24.7542857,12.9593704 24.7542857,14.0453512 C24.7542857,15.0589333 25.0438095,16.0001166 25.5504762,16.7965025 C26.0571429,17.5928884 26.7809524,17.954882 27.8666667,17.954882 Z" id="Shape"></path>
                    <path d="M38.7961905,19.2580589 L38.7961905,8.68784611 C38.7961905,8.03625765 38.9409524,7.52946663 39.3028571,7.09507432 C39.6647619,6.66068202 40.1714286,6.44348586 40.7504762,6.44348586 C41.8361905,6.44348586 42.4152381,6.95027689 42.56,7.89146022 C42.9219048,7.31227048 43.4285714,6.95027689 44.08,6.66068202 C44.7314286,6.37108715 45.527619,6.29868843 46.3961905,6.29868843 C47.9885714,6.29868843 49.2914286,6.80547945 50.3047619,7.74666278 C51.3180952,8.68784611 51.8247619,9.99102303 51.8247619,11.6561935 L51.8247619,19.2580589 C51.8247619,19.9096473 51.68,20.4164384 51.3180952,20.8508307 C50.9561905,21.285223 50.4495238,21.5024191 49.8704762,21.5024191 C49.2914286,21.5024191 48.7847619,21.285223 48.4228571,20.8508307 C48.0609524,20.4164384 47.9161905,19.9096473 47.9161905,19.2580589 L47.9161905,12.3801807 C47.9161905,11.5113961 47.6990476,10.8598076 47.192381,10.3530166 C46.6857143,9.91862431 46.1066667,9.62902944 45.3104762,9.62902944 C44.5142857,9.62902944 43.8628571,9.84622559 43.4285714,10.3530166 C42.9942857,10.8598076 42.7771429,11.5113961 42.7771429,12.307782 L42.7771429,19.1856602 C42.7771429,19.8372486 42.632381,20.3440396 42.2704762,20.7784319 C41.9085714,21.2128242 41.4019048,21.4300204 40.8228571,21.4300204 C40.2438095,21.4300204 39.7371429,21.2128242 39.3752381,20.7784319 C38.9409524,20.4164384 38.7961905,19.9096473 38.7961905,19.2580589 Z" id="Path"></path>
                    <path d="M69.2685714,2.38915768 L69.2685714,19.2580589 C69.2685714,19.9096473 69.1238095,20.4164384 68.7619048,20.8508307 C68.4,21.285223 67.8933333,21.5024191 67.3142857,21.5024191 C66.2285714,21.5024191 65.5771429,20.9232294 65.36,19.8372486 C64.9980952,20.4164384 64.4914286,20.8508307 63.767619,21.2128242 C63.1161905,21.5024191 62.392381,21.6472166 61.7409524,21.6472166 C59.7866667,21.6472166 58.2666667,20.9232294 57.0361905,19.4028563 C55.8057143,17.8824832 55.2266667,16.144914 55.2266667,14.1901486 C55.2266667,12.0905858 55.8057143,10.2806179 56.8914286,8.68784611 C57.9771429,7.16747304 59.5695238,6.37108715 61.5961905,6.37108715 C63.0438095,6.37108715 64.2742857,6.80547945 65.36,7.74666278 L65.36,2.38915768 C65.36,1.73756922 65.5047619,1.2307782 65.8666667,0.796385893 C66.2285714,0.361993588 66.7352381,0.217196153 67.3142857,0.217196153 C67.8933333,0.217196153 68.4,0.434392305 68.7619048,0.868784611 C69.1238095,1.2307782 69.2685714,1.73756922 69.2685714,2.38915768 Z M62.247619,9.99102303 C61.3066667,9.99102303 60.5104762,10.4254153 60.0038095,11.2218012 C59.4247619,12.0181871 59.207619,12.9593704 59.207619,14.0453512 C59.207619,15.131332 59.4971429,16.0001166 60.0038095,16.7965025 C60.5104762,17.5928884 61.3066667,18.0272807 62.32,18.0272807 C63.3333333,18.0272807 64.1295238,17.5928884 64.6361905,16.7965025 C65.1428571,16.0001166 65.432381,14.9865345 65.432381,13.9005538 C65.432381,12.8869717 65.1428571,11.9457884 64.6361905,11.1494025 C63.9847619,10.3530166 63.2609524,9.99102303 62.247619,9.99102303 Z" id="Shape"></path>
                    <path d="M81.5733333,10.9322064 C81.4285714,10.9322064 80.9219048,10.7150102 79.9809524,10.3530166 C79.04,9.99102303 78.3885714,9.77382687 77.9542857,9.77382687 C77.52,9.77382687 77.2304762,9.84622559 77.0133333,10.0634217 C76.7961905,10.2806179 76.6514286,10.497814 76.6514286,10.8598076 C76.6514286,11.2941999 77.3752381,11.800991 78.8228571,12.3801807 C80.2704762,12.9593704 81.4285714,13.5385602 82.2971429,14.1177499 C83.1657143,14.6969397 83.6,15.638123 83.6,16.9412999 C83.6,18.2444768 83.0933333,19.3304576 82.08,20.2716409 C81.0666667,21.1404255 79.6914286,21.5748178 77.9542857,21.5748178 C76.7238095,21.5748178 75.4933333,21.285223 74.2628571,20.7060332 C73.032381,20.1268435 72.4533333,19.4028563 72.4533333,18.5340717 C72.4533333,18.1720781 72.5980952,17.8100845 72.887619,17.3756922 C73.1771429,16.9412999 73.6114286,16.7241038 74.1180952,16.7241038 C74.552381,16.7241038 75.2038095,16.9412999 76.072381,17.3756922 C76.9409524,17.8100845 77.6647619,18.0272807 78.1714286,18.0272807 C78.7504762,18.0272807 79.1847619,17.954882 79.4019048,17.7376858 C79.6190476,17.5928884 79.7638095,17.3032935 79.7638095,16.8689012 C79.7638095,16.4345089 79.04,15.9277179 77.52,15.3485281 C76.072381,14.7693384 74.9142857,14.1901486 74.0457143,13.6109589 C73.2495238,13.0317692 72.8152381,12.0905858 72.8152381,10.7874089 C72.8152381,9.41183328 73.3219048,8.2534538 74.2628571,7.45706791 C75.2761905,6.5882833 76.5066667,6.22628971 78.0990476,6.22628971 C79.2571429,6.22628971 80.4152381,6.44348586 81.4285714,6.95027689 C82.5142857,7.45706791 83.0209524,8.18105509 83.0209524,9.0498397 C83.0209524,9.484232 82.8761905,9.91862431 82.5866667,10.2806179 C82.4419048,10.7874089 82.007619,10.9322064 81.5733333,10.9322064 Z" id="Path"></path>
                    <path d="M86.567619,13.5385602 L86.567619,3.76473331 C86.567619,3.11314486 86.7847619,2.53395512 87.1466667,2.17196153 C87.5085714,1.80996794 88.0152381,1.59277179 88.6666667,1.59277179 C89.2457143,1.59277179 89.752381,1.80996794 90.1142857,2.17196153 C90.4761905,2.53395512 90.6933333,3.04074614 90.6933333,3.76473331 L90.6933333,13.321364 C90.6933333,14.624541 91.0552381,15.7105217 91.8514286,16.5793063 C92.647619,17.4480909 93.6609524,17.8824832 94.8914286,17.8824832 C96.1219048,17.8824832 97.1352381,17.4480909 97.8590476,16.5793063 C98.6552381,15.7105217 99.0171429,14.624541 99.0171429,13.321364 L99.0171429,3.76473331 C99.0171429,3.11314486 99.2342857,2.53395512 99.5961905,2.17196153 C99.9580952,1.80996794 100.464762,1.59277179 101.11619,1.59277179 C101.695238,1.59277179 102.201905,1.80996794 102.56381,2.17196153 C102.925714,2.53395512 103.142857,3.04074614 103.142857,3.76473331 L103.142857,13.5385602 C103.142857,15.7829204 102.346667,17.7376858 100.681905,19.2580589 C99.0895238,20.8508307 97.1352381,21.5748178 94.8190476,21.5748178 C92.5028571,21.5748178 90.4761905,20.7784319 88.8838095,19.2580589 C87.3638095,17.7376858 86.567619,15.8553191 86.567619,13.5385602 Z" id="Path"></path>
                    <path d="M107.19619,19.3304576 L107.19619,3.90953075 C107.19619,3.25794229 107.413333,2.75115127 107.775238,2.38915768 C108.137143,2.02716409 108.64381,1.80996794 109.367619,1.80996794 L114.217143,1.80996794 C116.24381,1.80996794 117.908571,2.38915768 119.211429,3.61993588 C120.514286,4.85071408 121.238095,6.44348586 121.238095,8.32585252 C121.238095,10.2806179 120.586667,11.8733897 119.28381,13.0317692 C117.980952,14.1901486 116.31619,14.8417371 114.434286,14.8417371 L111.394286,14.8417371 L111.394286,19.3304576 C111.394286,19.9820461 111.177143,20.5612358 110.815238,20.9232294 C110.453333,21.285223 109.946667,21.5024191 109.295238,21.5024191 C108.71619,21.5024191 108.209524,21.285223 107.847619,20.9232294 C107.413333,20.4888371 107.19619,19.9820461 107.19619,19.3304576 Z M111.321905,5.3575051 L111.321905,11.1494025 L114.144762,11.1494025 C115.013333,11.1494025 115.664762,10.8598076 116.171429,10.3530166 C116.678095,9.84622559 116.967619,9.12223841 116.967619,8.2534538 C116.967619,7.45706791 116.678095,6.73308073 116.171429,6.15389099 C115.664762,5.57470125 114.940952,5.28510638 114.144762,5.28510638 L111.321905,5.28510638 L111.321905,5.3575051 Z" id="Shape"></path>
                </g>
            </g>
        </g>
    </g>
</svg>
